<svg width="14" height="13" viewBox="0 0 14 13" fill="none" xmlns="http://www.w3.org/2000/svg">
<path d="M0 1.0625C0.03125 0.71875 0.21875 0.53125 0.5625 0.5H1.64062C2.17188 0.53125 2.5625 0.78125 2.8125 1.25H12.4453C12.7578 1.26563 13.0078 1.39062 13.1953 1.625C13.3672 1.85938 13.4219 2.125 13.3594 2.42188L12.3984 6.00781C12.2891 6.38281 12.0859 6.67969 11.7891 6.89844C11.4922 7.13281 11.1484 7.25 10.7578 7.25H4.00781L4.125 7.92969C4.20312 8.21094 4.39062 8.35938 4.6875 8.375H11.4375C11.7812 8.40625 11.9688 8.59375 12 8.9375C11.9688 9.28125 11.7812 9.46875 11.4375 9.5H4.6875C4.26562 9.5 3.90625 9.36719 3.60938 9.10156C3.29688 8.85156 3.10156 8.53125 3.02344 8.14062L1.80469 1.78906C1.78906 1.67969 1.73438 1.625 1.64062 1.625H0.5625C0.21875 1.59375 0.03125 1.40625 0 1.0625ZM3 11.375C3.01562 10.9531 3.20312 10.625 3.5625 10.3906C3.9375 10.2031 4.3125 10.2031 4.6875 10.3906C5.04688 10.625 5.23438 10.9531 5.25 11.375C5.23438 11.7969 5.04688 12.125 4.6875 12.3594C4.3125 12.5469 3.9375 12.5469 3.5625 12.3594C3.20312 12.125 3.01562 11.7969 3 11.375ZM10.875 10.25C11.2969 10.2656 11.625 10.4531 11.8594 10.8125C12.0469 11.1875 12.0469 11.5625 11.8594 11.9375C11.625 12.2969 11.2969 12.4844 10.875 12.5C10.4531 12.4844 10.125 12.2969 9.89062 11.9375C9.70312 11.5625 9.70312 11.1875 9.89062 10.8125C10.125 10.4531 10.4531 10.2656 10.875 10.25Z" fill="black"/>
</svg>
